<?xml version="1.0" encoding="UTF-8"?>
<svg width="16px" height="16px" viewBox="0 0 16 16" version="1.1" xmlns="http://www.w3.org/2000/svg" xmlns:xlink="http://www.w3.org/1999/xlink">
    <g stroke="none" stroke-width="1" fill="none" fill-rule="evenodd">
        <g>
            <path d="M8,0 C12.421875,0 16,3.578125 16,8 C16,12.421875 12.421875,16 8,16 C3.578125,16 0,12.421875 0,8 C0,3.578125 3.578125,0 8,0 Z" fill="#21B6E3"></path>
            <path d="M9.5,12.5390625 L9.5,7.5390625 C9.5,7.265625 9.2734375,7.0390625 9,7.0390625 L7,7.0390625 C6.7265625,7.0390625 6.5,7.265625 6.5,7.5390625 L6.5,12.5390625 C6.5,12.8203125 6.7265625,13.0390625 7,13.0390625 L9,13.0390625 C9.2734375,13.0390625 9.5,12.8203125 9.5,12.5390625 Z" fill="#FFFFFF"></path>
            <path d="M8,6.2890625 C8.96875,6.2890625 9.75,5.5078125 9.75,4.5390625 C9.75,3.578125 8.96875,2.7890625 8,2.7890625 C7.03125,2.7890625 6.25,3.578125 6.25,4.5390625 C6.25,5.5078125 7.03125,6.2890625 8,6.2890625 Z" fill="#FFFFFF"></path>
        </g>
    </g>
</svg>
