<?xml version="1.0" encoding="UTF-8"?>
<svg width="17px" height="16px" viewBox="0 0 17 16" version="1.1" xmlns="http://www.w3.org/2000/svg" xmlns:xlink="http://www.w3.org/1999/xlink">
    <g stroke="none" stroke-width="1" fill="none" fill-rule="evenodd">
        <path d="M9.83333333,1.33307107 C9.83333333,0.592330332 9.24074074,-0.000262260437 8.5,-0.000262260437 C7.75925926,-0.000262260437 7.16666667,0.592330332 7.16666667,1.33307107 L7.16666667,3.66640441 C7.16666667,4.40714515 7.75925926,4.99973774 8.5,4.99973774 C9.24074074,4.99973774 9.83333333,4.40714515 9.83333333,3.66640441 L9.83333333,1.33307107 Z M9.83333333,12.3330711 C9.83333333,11.5923303 9.24074074,10.9997377 8.5,10.9997377 C7.75925926,10.9997377 7.16666667,11.5923303 7.16666667,12.3330711 L7.16666667,14.6664044 C7.16666667,15.4071451 7.75925926,15.9997377 8.5,15.9997377 C9.24074074,15.9997377 9.83333333,15.4071451 9.83333333,14.6664044 L9.83333333,12.3330711 Z M5.5,7.99973774 C5.5,7.258997 4.90740741,6.66640441 4.16666667,6.66640441 L1.83333333,6.66640441 C1.09259259,6.66640441 0.5,7.258997 0.5,7.99973774 C0.5,8.74047848 1.09259259,9.33307107 1.83333333,9.33307107 L4.16666667,9.33307107 C4.90740741,9.33307107 5.5,8.74047848 5.5,7.99973774 Z M16.5,7.99973774 C16.5,7.258997 15.9074074,6.66640441 15.1666667,6.66640441 L12.8333333,6.66640441 C12.0925926,6.66640441 11.5,7.258997 11.5,7.99973774 C11.5,8.74047848 12.0925926,9.33307107 12.8333333,9.33307107 L15.1666667,9.33307107 C15.9074074,9.33307107 16.5,8.74047848 16.5,7.99973774 Z M6.37037037,5.87010811 C6.90740741,5.35158959 6.90740741,4.51825626 6.37037037,3.99973774 L4.72222222,2.35158959 C4.2037037,1.81455255 3.37037037,1.81455255 2.83333333,2.35158959 C2.31481481,2.87010811 2.31481481,3.70344144 2.83333333,4.22195996 L4.5,5.87010811 C5.01851852,6.40714515 5.85185185,6.40714515 6.37037037,5.87010811 Z M14.1481481,13.6664044 C14.6851852,13.1293674 14.6851852,12.296034 14.1481481,11.7775155 L12.5,10.1293674 C11.9814815,9.59233033 11.1481481,9.59233033 10.6296296,10.1293674 C10.0925926,10.6478859 10.0925926,11.4812192 10.6296296,11.9997377 L12.2777778,13.6664044 C12.7962963,14.1849229 13.6296296,14.1849229 14.1481481,13.6664044 Z M14.1481481,4.22195996 C14.6851852,3.70344144 14.6851852,2.87010811 14.1481481,2.35158959 C13.6296296,1.81455255 12.7962963,1.81455255 12.2777778,2.35158959 L10.6296296,3.99973774 C10.0925926,4.51825626 10.0925926,5.35158959 10.6296296,5.87010811 C11.1481481,6.40714515 11.9814815,6.40714515 12.5,5.87010811 L14.1481481,4.22195996 Z M6.37037037,11.9997377 C6.90740741,11.4812192 6.90740741,10.6478859 6.37037037,10.1293674 C5.85185185,9.59233033 5.01851852,9.59233033 4.5,10.1293674 L2.83333333,11.7775155 C2.31481481,12.296034 2.31481481,13.1293674 2.83333333,13.6664044 C3.37037037,14.1849229 4.2037037,14.1849229 4.72222222,13.6664044 L6.37037037,11.9997377 Z" fill="#9B9B9B"></path>
    </g>
</svg>
